<svg width="24" height="24" viewBox="0 0 24 24" fill="none" xmlns="http://www.w3.org/2000/svg">
<path d="M8.28669 20.754C8.99677 20.754 9.57241 20.1784 9.57241 19.4683C9.57241 18.7583 8.99677 18.1826 8.28669 18.1826C7.57661 18.1826 7.00098 18.7583 7.00098 19.4683C7.00098 20.1784 7.57661 20.754 8.28669 20.754Z" fill="white"/>
<path d="M17.2867 20.754C17.9968 20.754 18.5724 20.1784 18.5724 19.4683C18.5724 18.7583 17.9968 18.1826 17.2867 18.1826C16.5766 18.1826 16.001 18.7583 16.001 19.4683C16.001 20.1784 16.5766 20.754 17.2867 20.754Z" fill="white"/>
<path d="M5.07143 7.25378H20.5L18.5714 14.9681C18.4921 15.2525 18.1629 16.076 17.9286 16.2538C17.6942 16.4315 17.5791 16.2555 17.2857 16.2538H8.92857C8.63519 16.2555 8.52006 16.4315 8.28571 16.2538C8.05137 16.076 7.7222 15.2525 7.64286 14.9681L4.42857 4.68235C4.38828 4.54049 4.54561 4.12826 4.42857 4.03949C4.31154 3.95072 3.93224 4.03933 3.78571 4.03949H2.5" stroke="white" stroke-width="1.5" stroke-linecap="round" stroke-linejoin="round"/>
</svg>
