<svg width="80" height="80" viewBox="0 0 80 80" fill="none" xmlns="http://www.w3.org/2000/svg">
<path d="M63.6147 16.0318C69.2063 19.6477 72.4681 26.9962 70.8372 33.1783C69.2063 39.477 62.7993 44.6093 58.7221 48.4585C54.5284 52.3077 52.7811 54.7572 50.3347 57.5566C47.8884 60.2394 44.9761 63.2721 40.5495 65.4883C36.1228 67.7045 30.0653 68.7543 25.2891 66.888C20.513 64.9051 16.9018 59.6562 16.0863 54.2906C15.1544 48.8084 16.7853 43.2095 18.8821 37.844C20.979 32.4784 23.4253 27.5794 27.386 23.3803C31.3467 19.1812 36.7053 15.7985 43.4618 14.0489C50.1018 12.4159 58.0232 12.4159 63.6147 16.0318ZM67.3425 61.2892C69.9053 59.5395 70.7207 56.0402 69.0898 53.5907C67.459 51.1412 63.9642 50.558 61.2849 52.3077C58.7221 54.0573 57.9067 57.5566 59.5376 60.0061C61.2849 62.4556 64.7797 63.0388 67.3425 61.2892ZM8.51439 30.3789C9.32983 30.3789 10.0288 31.0787 10.0288 31.8952C10.0288 32.7117 9.32983 33.4116 8.51439 33.4116C7.69895 33.4116 7 32.7117 7 31.8952C7 31.0787 7.69895 30.3789 8.51439 30.3789ZM72.5846 46.2423C73.0505 46.2423 73.4 46.5922 73.4 47.0587C73.4 47.5253 73.0505 47.8753 72.5846 47.8753C72.1186 47.8753 71.7691 47.5253 71.7691 47.0587C71.6526 46.7088 72.1186 46.2423 72.5846 46.2423Z" fill="#F5D6B0"/>
<path d="M62.9842 63.6542C63.2145 63.8852 63.5168 64 63.8188 64C64.1212 64 64.4238 63.8845 64.6538 63.6542C65.1154 63.193 65.1154 62.4452 64.6538 61.9843L56.8043 54.1347C63.3808 46.6926 63.1124 35.2829 55.9962 28.1667C53.0495 25.2203 49.112 22.6423 44.2903 20.504C40.4722 18.8104 36.0896 17.3846 31.2628 16.2668C23.0685 14.3675 16.5162 14.0157 16.2415 14.0015C15.9075 13.9847 15.5819 14.1093 15.3459 14.3456C15.1098 14.582 14.985 14.9072 15.0014 15.2409C15.0159 15.5159 15.3677 22.0682 17.267 30.2629C18.3855 35.089 19.8107 39.472 21.5046 43.29C23.6425 48.1107 26.2209 52.0496 29.1669 54.9956C32.7503 58.579 37.5144 60.5523 42.5819 60.5523C47.2535 60.5523 51.6671 58.8743 55.1353 55.804L62.9842 63.6542ZM51.6805 40.0851C51.028 40.0851 50.4995 40.6137 50.4995 41.2662V47.8299L45.5976 42.9284V34.0025C45.5976 33.3503 45.0697 32.8217 44.4172 32.8217C43.7647 32.8217 43.2361 33.3503 43.2361 34.0025V40.5665L38.3349 35.665V26.7398C38.3349 26.0873 37.8063 25.5583 37.1538 25.5583C36.5013 25.5583 35.9727 26.0873 35.9727 26.7398V33.3032L29.6453 26.9754C29.1837 26.5142 28.436 26.5142 27.975 26.9754C27.5134 27.4367 27.5134 28.1845 27.975 28.6454L34.3024 34.9731H27.739C27.0865 34.9731 26.5579 35.5017 26.5579 36.1542C26.5579 36.8064 27.0865 37.335 27.739 37.335H36.6646L41.5658 42.2365H35.0017C34.3499 42.2365 33.8213 42.7654 33.8213 43.4176C33.8213 44.0698 34.3499 44.5984 35.0017 44.5984H43.928L48.8291 49.5002H42.2657C41.6132 49.5002 41.0847 50.0288 41.0847 50.681C41.0847 51.3335 41.6132 51.8621 42.2657 51.8621H51.1913L53.4606 54.1317C50.4415 56.7575 46.6215 58.1908 42.5809 58.1908C38.144 58.1908 33.9731 56.4636 30.8362 53.3263C24.6027 47.0932 21.2722 37.0758 19.5763 29.7703C18.2124 23.8988 17.6589 18.7875 17.4589 16.4597C19.7875 16.6593 24.8991 17.2135 30.7699 18.5768C38.0757 20.273 48.0928 23.6039 54.3262 29.8366C60.5213 36.0317 60.789 45.9434 55.1313 52.461L52.862 50.1918V41.2662C52.8617 40.6137 52.333 40.0851 51.6805 40.0851Z" fill="#481C04"/>
</svg>
