<svg width="80" height="80" viewBox="0 0 80 80" fill="none" xmlns="http://www.w3.org/2000/svg">
<path d="M64.0983 20.9123C69.8246 24.6105 73.1649 32.1263 71.4948 38.4491C69.8246 44.8912 63.2632 50.1404 59.0877 54.0772C54.793 58.014 53.0035 60.5193 50.4983 63.3825C47.993 66.1263 45.0106 69.2281 40.4772 71.4947C35.9439 73.7614 29.7404 74.8351 24.8491 72.9263C19.9579 70.8983 16.2597 65.5298 15.4246 60.0421C14.4702 54.4351 16.1404 48.7088 18.2877 43.2211C20.4351 37.7333 22.9404 32.7228 26.9965 28.4281C31.0526 24.1333 36.5404 20.6737 43.4597 18.8842C50.2597 17.0947 58.3719 17.0947 64.0983 20.9123ZM67.9158 67.0807C70.5404 65.2912 71.3755 61.7123 69.7053 59.207C68.0351 56.7018 64.4562 56.1053 61.7123 57.8947C58.9684 59.6842 58.2526 63.2632 59.9228 65.7684C61.7123 68.393 65.2913 68.9895 67.9158 67.0807ZM14.2316 22.9404C14.9474 19.6 17.5719 17.0947 20.9123 16.2597L21.3895 16.1404L20.9123 16.0211C17.5719 15.3053 15.0667 12.6807 14.2316 9.34035L14.1123 8.86316L13.993 9.34035C13.2772 12.6807 10.6526 15.186 7.31229 16.0211L6.8351 16.1404L7.31229 16.2597C10.6526 16.9754 13.1579 19.6 13.993 22.9404L14.1123 23.4175L14.2316 22.9404ZM28.3088 14.9474C28.786 12.9193 30.3369 11.2491 32.4842 10.7719L32.8421 10.6526L32.4842 10.5333C30.4562 10.0561 28.786 8.50526 28.3088 6.35789L28.1895 6.1193L28.0702 6.35789C27.593 8.38596 26.0421 10.0561 23.8947 10.5333L23.5369 10.6526L23.8947 10.7719C25.9228 11.2491 27.593 12.8 28.0702 14.9474L28.3088 15.186V14.9474ZM7.5509 35.586C8.38599 35.586 9.10176 36.3018 9.10176 37.1368C9.10176 37.9719 8.38599 38.6877 7.5509 38.6877C6.71581 38.6877 6 37.9719 6 37.1368C6 36.3018 6.71581 35.586 7.5509 35.586ZM56.2246 6C57.0597 6 57.7755 6.71579 57.7755 7.55088C57.7755 8.38596 57.0597 9.10176 56.2246 9.10176C55.3895 9.10176 54.6737 8.38596 54.6737 7.55088C54.6737 6.59649 55.3895 6 56.2246 6ZM73.1649 51.8105C73.6421 51.8105 74 52.1684 74 52.6456C74 53.1228 73.6421 53.4807 73.1649 53.4807C72.6877 53.4807 72.3298 53.1228 72.3298 52.6456C72.3298 52.1684 72.6877 51.8105 73.1649 51.8105Z" fill="#F5D6B0"/>
<path d="M62.0716 38.5687H18.1699C17.3348 38.5687 16.7383 37.8529 16.7383 37.1371V28.6669C16.7383 27.8318 17.4541 27.2354 18.1699 27.2354H62.0716C62.9067 27.2354 63.5032 27.9511 63.5032 28.6669V37.1371C63.5032 37.8529 62.9067 38.5687 62.0716 38.5687Z" stroke="#481C04" stroke-width="2.4" stroke-miterlimit="10" stroke-linecap="round" stroke-linejoin="round"/>
<path d="M59.3284 44.7719V56.2245C59.3284 59.0877 56.9425 61.4736 54.0793 61.4736H25.9249C23.0617 61.4736 20.6758 59.0877 20.6758 56.2245V38.5684" stroke="#481C04" stroke-width="2.4" stroke-miterlimit="10" stroke-linecap="round" stroke-linejoin="round"/>
<path d="M40.1211 24.9685C40.1211 21.3895 42.9842 18.5264 46.5632 18.5264C50.1421 18.5264 53.0053 21.3895 53.0053 24.9685" stroke="#481C04" stroke-width="2.4" stroke-miterlimit="10" stroke-linecap="round" stroke-linejoin="round"/>
<path d="M40 39V60.9509" stroke="#481C04" stroke-width="2.4" stroke-miterlimit="10" stroke-linecap="round" stroke-linejoin="round"/>
<path d="M27.1172 24.9685C27.1172 21.3895 29.9803 18.5264 33.5593 18.5264C37.1382 18.5264 40.0014 21.3895 40.0014 24.9685" stroke="#481C04" stroke-width="2.4" stroke-miterlimit="10" stroke-linecap="round" stroke-linejoin="round"/>
</svg>
