<svg width="80" height="80" viewBox="0 0 80 80" fill="none" xmlns="http://www.w3.org/2000/svg">
<path d="M67.0779 21.672C67.2081 27.271 63.3018 33.0003 61.8694 38.5993C60.4371 44.1984 61.4788 49.7974 59.7861 55.6569C58.0934 61.5164 53.6662 67.7665 47.5463 70.3707C41.4264 72.9749 33.4835 71.803 27.7543 67.8967C22.025 63.9904 18.3791 57.3497 14.0822 50.4485C9.78525 43.5473 4.83724 36.516 6.79039 31.4378C8.87376 26.3595 17.8583 23.2345 24.499 20.5001C31.0095 17.7657 35.1763 15.2917 40.515 12.6874C45.8536 10.0832 52.3641 7.47899 57.7027 8.9113C63.0413 10.2134 67.0779 15.9427 67.0779 21.672ZM66.6872 45.2401C68.1196 47.8443 71.2446 48.7557 73.5884 47.3234C75.9322 46.0213 76.7134 42.7661 75.2811 40.2921C73.8488 37.6878 70.7238 36.7764 68.38 38.2087C65.906 39.5108 65.1247 42.7661 66.6872 45.2401ZM5.48829 58.5215C6.13934 57.8705 7.31124 57.8705 8.0925 58.5215C8.87376 59.1726 8.74355 60.3445 8.0925 61.1257C7.44145 61.7768 6.26955 61.7768 5.48829 61.1257C4.83724 60.4747 4.83724 59.3028 5.48829 58.5215Z" fill="#F5D6B0"/>
<path d="M15.7754 31.5681C15.7754 34.563 18.7702 37.0369 19.8119 39.6411C20.9838 42.3756 20.5932 46.1517 22.6766 48.2351C24.7599 50.3184 28.536 49.9278 31.2704 51.0997C33.8746 52.1414 36.3487 55.1362 39.3435 55.1362C42.3384 55.1362 44.8124 52.1414 47.4166 51.0997C50.151 49.9278 53.9271 50.3184 56.0104 48.2351C58.0938 46.1517 57.7032 42.3756 58.8751 39.6411C59.9168 37.0369 62.9116 34.563 62.9116 31.5681C62.9116 28.5733 59.9168 26.0993 58.8751 23.495C57.7032 20.7606 58.0938 16.9845 56.0104 14.9011C53.9271 12.8178 50.151 13.2084 47.4166 12.0365C44.8124 10.9949 42.3384 8 39.3435 8C36.3487 8 33.8746 10.9949 31.2704 12.0365C28.536 13.2084 24.7599 12.8178 22.6766 14.9011C20.5932 16.9845 20.9838 20.7606 19.8119 23.495C18.7702 26.0993 15.7754 28.5733 15.7754 31.5681Z" stroke="#481C04" stroke-width="2.4" stroke-miterlimit="10" stroke-linecap="round" stroke-linejoin="round"/>
<path d="M45.5364 27.8164L36.9913 36.3615L32.7188 32.0889" stroke="#481C04" stroke-width="2.4" stroke-linecap="round" stroke-linejoin="round"/>
</svg>
