<svg width="48" height="48" viewBox="0 0 48 48" fill="none" xmlns="http://www.w3.org/2000/svg">
<path d="M6.19815 20.2995C7.9344 17.8687 12.3792 16.827 15.5739 15.8547C18.7686 14.8824 20.7132 13.9795 23.2134 13.0767C25.7136 12.1738 28.7694 11.2015 31.6863 11.7571C34.6032 12.3127 37.5201 14.5351 39.7425 17.6604C41.9649 20.7856 43.5622 24.8137 42.2427 27.8001C40.9926 30.7864 36.8256 32.6616 33.3531 33.1477C29.8806 33.7033 26.9637 32.8699 23.3523 34.4673C19.7409 35.9952 15.3655 39.9538 12.4486 39.676C9.53175 39.4677 8.00385 35.0229 6.75375 30.8559C5.50366 26.6889 4.4619 22.7302 6.19815 20.2995ZM29.8111 37.5231C29.6722 36.1341 28.0054 35.3007 26.0608 35.7868C24.0468 36.273 22.5883 37.9398 22.9356 39.3982C23.2134 40.7872 24.9496 41.4123 26.8248 40.8567C28.561 40.3705 29.95 38.9121 29.8111 37.5231ZM15.1572 12.8683C15.6433 10.7154 17.3101 9.04858 19.4631 8.56243L19.8103 8.493L19.4631 8.42355C17.3101 7.9374 15.6433 6.27059 15.1572 4.11764L15.0878 3.83984L15.0183 4.11764C14.5321 6.27059 12.8653 7.9374 10.7124 8.42355L10.3651 8.493L10.7124 8.56243C12.8653 9.04858 14.5321 10.7154 15.0183 12.8683L15.0878 13.1461L15.1572 12.8683ZM22.5189 7.104C22.6578 6.47895 23.1439 5.92333 23.8384 5.78443H23.9079H23.8384C23.2134 5.64553 22.6578 5.08994 22.5189 4.46489V4.39544V4.46489C22.38 5.08994 21.8938 5.64553 21.1993 5.78443H21.1299H21.1993C21.8244 5.99278 22.3105 6.47895 22.5189 7.104V7.17343V7.104ZM37.7284 41.4123C38.0062 40.0927 39.048 39.051 40.3675 38.7732L40.5759 38.7037L40.3675 38.6343C39.048 38.3565 38.0062 37.3147 37.7284 35.9952L37.659 35.7868L37.5895 35.9952C37.3117 37.3147 36.27 38.3565 34.9504 38.6343L34.7421 38.7037L34.9504 38.7732C36.27 39.051 37.3117 40.0927 37.5895 41.4123L37.659 41.6206L37.7284 41.4123ZM41.6176 7.45125C42.1732 7.45125 42.5899 7.86795 42.5899 8.42355C42.5899 8.97915 42.1732 9.39584 41.6176 9.39584C41.062 9.39584 40.6453 8.97915 40.6453 8.42355C40.6453 7.86795 41.062 7.45125 41.6176 7.45125ZM18.213 41.7595C18.7686 41.7595 19.1853 42.1762 19.1853 42.7318C19.1853 43.2874 18.7686 43.7041 18.213 43.7041C17.6574 43.7041 17.2407 43.2874 17.2407 42.7318C17.2407 42.1762 17.6574 41.7595 18.213 41.7595Z" fill="#F5D6B0"/>
<path d="M13.3506 21.4804V14.466C13.3506 13.4242 14.184 12.5908 15.2257 12.5908H25.5738C26.6155 12.5908 27.4489 13.4242 27.4489 14.466V26.8975H22.3791" stroke="#481C04" stroke-miterlimit="10" stroke-linecap="round" stroke-linejoin="round"/>
<path d="M34.2552 26.9668C35.297 26.9668 36.1303 26.1334 36.1303 25.0917V20.508C36.1303 20.1607 35.9914 19.8135 35.7831 19.5357L32.5884 16.0632C32.3106 15.7854 31.9633 15.6465 31.5466 15.6465H27.5186V26.9668" stroke="#481C04" stroke-miterlimit="10" stroke-linecap="round" stroke-linejoin="round"/>
<path d="M19.9483 29.3976C21.2908 29.3976 22.3791 28.3093 22.3791 26.9669C22.3791 25.6244 21.2908 24.5361 19.9483 24.5361C18.6059 24.5361 17.5176 25.6244 17.5176 26.9669C17.5176 28.3093 18.6059 29.3976 19.9483 29.3976Z" stroke="#481C04" stroke-miterlimit="10" stroke-linecap="round" stroke-linejoin="round"/>
<path d="M30.4356 29.3976C31.7781 29.3976 32.8664 28.3093 32.8664 26.9669C32.8664 25.6244 31.7781 24.5361 30.4356 24.5361C29.0932 24.5361 28.0049 25.6244 28.0049 26.9669C28.0049 28.3093 29.0932 29.3976 30.4356 29.3976Z" stroke="#481C04" stroke-miterlimit="10" stroke-linecap="round" stroke-linejoin="round"/>
<path d="M13.3506 26.9668H17.4481" stroke="#481C04" stroke-miterlimit="10" stroke-linecap="round" stroke-linejoin="round"/>
<path d="M11.8223 21.4805H18.1422" stroke="#481C04" stroke-miterlimit="10" stroke-linecap="round" stroke-linejoin="round"/>
</svg>
