<svg width="48" height="48" viewBox="0 0 48 48" fill="none" xmlns="http://www.w3.org/2000/svg">
<path d="M19.8695 41.5877C16.2336 42.4471 11.8705 41.2572 9.42451 38.3484C6.97854 35.5058 6.51579 30.9444 7.97015 27.5068C9.42452 24.0031 12.796 21.6232 15.4403 19.5739C18.0846 17.5246 20.0678 15.8719 22.5138 14.2853C24.9598 12.6987 28.0668 11.2444 31.7688 10.9799C35.4709 10.7155 39.9 11.641 42.5443 14.2853C45.1886 16.9957 46.048 21.491 45.387 25.4575C44.7259 29.49 42.6105 32.9937 39.6356 34.5142C36.6608 36.0347 32.8266 35.5719 29.4551 36.7618C26.2819 37.8857 23.4393 40.7283 19.8695 41.5877ZM9.68895 17.5907C10.1517 15.5414 11.7383 13.9548 13.7876 13.492L14.1181 13.4259L13.7876 13.3598C11.7383 12.8971 10.1517 11.3105 9.68895 9.26115L9.62284 8.99672L9.55674 9.26115C9.09399 11.3105 7.5074 12.8971 5.45807 13.3598L5.12753 13.4259L5.45807 13.492C7.5074 13.9548 9.09399 15.5414 9.55674 17.5907L9.62284 17.8551L9.68895 17.5907ZM15.1098 9.19504C15.3742 7.939 16.3658 6.94739 17.6218 6.68296L17.8202 6.61685L17.6218 6.55074C16.3658 6.28631 15.3742 5.29471 15.1098 4.03867L15.0436 3.84033L14.9775 4.03867C14.7131 5.29471 13.7215 6.28631 12.4655 6.55074L12.2671 6.61685L12.4655 6.68296C13.7215 6.94739 14.7131 7.939 14.9775 9.19504L15.0436 9.39337L15.1098 9.19504ZM31.1078 43.7031C32.9588 43.0421 34.2148 41.6538 33.8182 40.5961C33.4215 39.5384 31.6366 39.1417 29.7195 39.8028C27.8685 40.4639 26.6125 41.8521 27.0091 42.9098C27.4057 43.9676 29.1906 44.2981 31.1078 43.7031ZM39.8339 6.74908C39.3051 6.74908 38.9084 7.14572 38.9084 7.67458C38.9084 8.20344 39.3051 8.60008 39.8339 8.60008C40.3628 8.60008 40.7594 8.20344 40.7594 7.67458C40.7594 7.14572 40.3628 6.74908 39.8339 6.74908ZM19.539 9.39337C19.0101 9.39337 18.6135 9.79001 18.6135 10.3189C18.6135 10.8477 19.0101 11.2444 19.539 11.2444C20.0678 11.2444 20.4645 10.8477 20.4645 10.3189C20.4645 9.79001 20.0017 9.39337 19.539 9.39337ZM3.40874 23.6726C3.14431 23.6726 2.87988 23.937 2.87988 24.2014C2.87988 24.4659 3.14431 24.7303 3.40874 24.7303C3.67317 24.7303 3.93761 24.4659 3.93761 24.2014C3.93761 23.937 3.73928 23.6726 3.40874 23.6726Z" fill="#F5D6B0"/>
<path d="M34.8769 32.4649H13.7225C12.9954 32.4649 12.4004 31.8699 12.4004 31.1428V16.7313C12.4004 16.0041 12.9954 15.4092 13.7225 15.4092H34.8769C35.6041 15.4092 36.1991 16.0041 36.1991 16.7313V31.1428C36.1991 31.8699 35.6041 32.4649 34.8769 32.4649Z" stroke="#481C04" stroke-miterlimit="10" stroke-linecap="round" stroke-linejoin="round"/>
<path d="M34.8765 32.4652H30.4473C30.4473 29.2921 33.0254 26.7139 36.1986 26.7139V31.1431C36.1986 31.8703 35.6036 32.4652 34.8765 32.4652Z" stroke="#481C04" stroke-miterlimit="10" stroke-linecap="round" stroke-linejoin="round"/>
<path d="M34.8765 15.4092H30.4473C30.4473 18.5823 33.0254 21.1605 36.1986 21.1605V16.7313C36.1986 16.0041 35.6036 15.4092 34.8765 15.4092Z" stroke="#481C04" stroke-miterlimit="10" stroke-linecap="round" stroke-linejoin="round"/>
<path d="M13.7225 32.4647H18.1517C18.1517 29.2916 15.5735 26.7134 12.4004 26.7134V31.1426C12.4004 31.8698 12.9954 32.4647 13.7225 32.4647Z" stroke="#481C04" stroke-miterlimit="10" stroke-linecap="round" stroke-linejoin="round"/>
<path d="M13.7225 15.4092H18.1517C18.1517 18.5823 15.5735 21.1605 12.4004 21.1605V16.7313C12.4004 16.0041 12.9954 15.4092 13.7225 15.4092Z" stroke="#481C04" stroke-miterlimit="10" stroke-linecap="round" stroke-linejoin="round"/>
<path d="M23.9684 23.9374H23.8361C22.6462 23.9374 21.7207 23.0119 21.7207 21.822C21.7207 20.6321 22.6462 19.7065 23.8361 19.7065H26.0838" stroke="#481C04" stroke-miterlimit="10" stroke-linecap="round" stroke-linejoin="round"/>
<path d="M23.9684 23.9375H24.6295C25.8194 23.9375 26.7449 24.863 26.7449 26.0529C26.7449 27.2429 25.8194 28.1684 24.6295 28.1684H22.3818" stroke="#481C04" stroke-miterlimit="10" stroke-linecap="round" stroke-linejoin="round"/>
</svg>
