<svg width="136" height="24" viewBox="0 0 136 24" fill="none" xmlns="http://www.w3.org/2000/svg">
<path d="M12.4123 17.8781L17.1373 20.8781C17.7466 21.2625 18.4966 20.6906 18.3185 19.9875L16.9498 14.6063C16.9127 14.4571 16.9186 14.3005 16.9667 14.1546C17.0148 14.0086 17.1032 13.8792 17.2216 13.7813L21.4591 10.2469C22.0123 9.78752 21.731 8.8594 21.0091 8.81252L15.4779 8.45627C15.327 8.44749 15.1819 8.39494 15.0603 8.30503C14.9388 8.21513 14.8461 8.09177 14.7935 7.95002L12.731 2.75627C12.6764 2.60618 12.5769 2.47653 12.4461 2.38491C12.3153 2.29329 12.1595 2.24414 11.9998 2.24414C11.84 2.24414 11.6842 2.29329 11.5534 2.38491C11.4226 2.47653 11.3231 2.60618 11.2685 2.75627L9.206 7.95002C9.15344 8.09177 9.06072 8.21513 8.93918 8.30503C8.81764 8.39494 8.67255 8.44749 8.52163 8.45627L2.99038 8.81252C2.2685 8.8594 1.98725 9.78752 2.54038 10.2469L6.77788 13.7813C6.89632 13.8792 6.98468 14.0086 7.03278 14.1546C7.08088 14.3005 7.08676 14.4571 7.04975 14.6063L5.78413 19.5938C5.5685 20.4375 6.4685 21.1219 7.19038 20.6625L11.5873 17.8781C11.7105 17.7997 11.8536 17.7581 11.9998 17.7581C12.1459 17.7581 12.289 17.7997 12.4123 17.8781V17.8781Z" fill="#C2A17A"/>
<path d="M40.4123 17.8781L45.1373 20.8781C45.7466 21.2625 46.4966 20.6906 46.3185 19.9875L44.9498 14.6063C44.9127 14.4571 44.9186 14.3005 44.9667 14.1546C45.0148 14.0086 45.1032 13.8792 45.2216 13.7813L49.4591 10.2469C50.0123 9.78752 49.731 8.8594 49.0091 8.81252L43.4779 8.45627C43.327 8.44749 43.1819 8.39494 43.0603 8.30503C42.9388 8.21513 42.8461 8.09177 42.7935 7.95002L40.731 2.75627C40.6764 2.60618 40.5769 2.47653 40.4461 2.38491C40.3153 2.29329 40.1595 2.24414 39.9998 2.24414C39.84 2.24414 39.6842 2.29329 39.5534 2.38491C39.4226 2.47653 39.3231 2.60618 39.2685 2.75627L37.206 7.95002C37.1534 8.09177 37.0607 8.21513 36.9392 8.30503C36.8176 8.39494 36.6725 8.44749 36.5216 8.45627L30.9904 8.81252C30.2685 8.8594 29.9873 9.78752 30.5404 10.2469L34.7779 13.7813C34.8963 13.8792 34.9847 14.0086 35.0328 14.1546C35.0809 14.3005 35.0868 14.4571 35.0498 14.6063L33.7841 19.5938C33.5685 20.4375 34.4685 21.1219 35.1904 20.6625L39.5873 17.8781C39.7105 17.7997 39.8536 17.7581 39.9998 17.7581C40.1459 17.7581 40.289 17.7997 40.4123 17.8781V17.8781Z" fill="#C2A17A"/>
<path d="M68.4123 17.8781L73.1373 20.8781C73.7466 21.2625 74.4966 20.6906 74.3185 19.9875L72.9498 14.6063C72.9127 14.4571 72.9186 14.3005 72.9667 14.1546C73.0148 14.0086 73.1032 13.8792 73.2216 13.7813L77.4591 10.2469C78.0123 9.78752 77.731 8.8594 77.0091 8.81252L71.4779 8.45627C71.327 8.44749 71.1819 8.39494 71.0603 8.30503C70.9388 8.21513 70.8461 8.09177 70.7935 7.95002L68.731 2.75627C68.6764 2.60618 68.5769 2.47653 68.4461 2.38491C68.3153 2.29329 68.1595 2.24414 67.9998 2.24414C67.84 2.24414 67.6842 2.29329 67.5534 2.38491C67.4226 2.47653 67.3231 2.60618 67.2685 2.75627L65.206 7.95002C65.1534 8.09177 65.0607 8.21513 64.9392 8.30503C64.8176 8.39494 64.6725 8.44749 64.5216 8.45627L58.9904 8.81252C58.2685 8.8594 57.9873 9.78752 58.5404 10.2469L62.7779 13.7813C62.8963 13.8792 62.9847 14.0086 63.0328 14.1546C63.0809 14.3005 63.0868 14.4571 63.0498 14.6063L61.7841 19.5938C61.5685 20.4375 62.4685 21.1219 63.1904 20.6625L67.5873 17.8781C67.7105 17.7997 67.8536 17.7581 67.9998 17.7581C68.1459 17.7581 68.289 17.7997 68.4123 17.8781V17.8781Z" fill="#C2A17A"/>
<path d="M96.4123 17.8781L101.137 20.8781C101.747 21.2625 102.497 20.6906 102.319 19.9875L100.95 14.6063C100.913 14.4571 100.919 14.3005 100.967 14.1546C101.015 14.0086 101.103 13.8792 101.222 13.7813L105.459 10.2469C106.012 9.78752 105.731 8.8594 105.009 8.81252L99.4779 8.45627C99.327 8.44749 99.1819 8.39494 99.0603 8.30503C98.9388 8.21513 98.8461 8.09177 98.7935 7.95002L96.731 2.75627C96.6764 2.60618 96.5769 2.47653 96.4461 2.38491C96.3153 2.29329 96.1595 2.24414 95.9998 2.24414C95.84 2.24414 95.6842 2.29329 95.5534 2.38491C95.4226 2.47653 95.3231 2.60618 95.2685 2.75627L93.206 7.95002C93.1534 8.09177 93.0607 8.21513 92.9392 8.30503C92.8176 8.39494 92.6725 8.44749 92.5216 8.45627L86.9904 8.81252C86.2685 8.8594 85.9873 9.78752 86.5404 10.2469L90.7779 13.7813C90.8963 13.8792 90.9847 14.0086 91.0328 14.1546C91.0809 14.3005 91.0868 14.4571 91.0498 14.6063L89.7841 19.5938C89.5685 20.4375 90.4685 21.1219 91.1904 20.6625L95.5873 17.8781C95.7105 17.7997 95.8536 17.7581 95.9998 17.7581C96.1459 17.7581 96.289 17.7997 96.4123 17.8781V17.8781Z" fill="#C2A17A"/>
<path d="M124.412 17.8781L129.137 20.8781C129.747 21.2625 130.497 20.6906 130.319 19.9875L128.95 14.6063C128.913 14.4571 128.919 14.3005 128.967 14.1546C129.015 14.0086 129.103 13.8792 129.222 13.7813L133.459 10.2469C134.012 9.78752 133.731 8.8594 133.009 8.81252L127.478 8.45627C127.327 8.44749 127.182 8.39494 127.06 8.30503C126.939 8.21513 126.846 8.09177 126.794 7.95002L124.731 2.75627C124.676 2.60618 124.577 2.47653 124.446 2.38491C124.315 2.29329 124.159 2.24414 124 2.24414C123.84 2.24414 123.684 2.29329 123.553 2.38491C123.423 2.47653 123.323 2.60618 123.269 2.75627L121.206 7.95002C121.153 8.09177 121.061 8.21513 120.939 8.30503C120.818 8.39494 120.673 8.44749 120.522 8.45627L114.99 8.81252C114.269 8.8594 113.987 9.78752 114.54 10.2469L118.778 13.7813C118.896 13.8792 118.985 14.0086 119.033 14.1546C119.081 14.3005 119.087 14.4571 119.05 14.6063L117.784 19.5938C117.569 20.4375 118.469 21.1219 119.19 20.6625L123.587 17.8781C123.711 17.7997 123.854 17.7581 124 17.7581C124.146 17.7581 124.289 17.7997 124.412 17.8781V17.8781Z" fill="#C2A17A"/>
</svg>
