<svg width="152" height="24" viewBox="0 0 152 24" fill="none" xmlns="http://www.w3.org/2000/svg">
<path d="M12.4123 17.8781L17.1373 20.8781C17.7466 21.2625 18.4966 20.6906 18.3185 19.9875L16.9498 14.6063C16.9127 14.4571 16.9186 14.3005 16.9667 14.1546C17.0148 14.0086 17.1032 13.8792 17.2216 13.7813L21.4591 10.2469C22.0123 9.78752 21.731 8.8594 21.0091 8.81252L15.4779 8.45627C15.327 8.44749 15.1819 8.39494 15.0603 8.30503C14.9388 8.21513 14.8461 8.09177 14.7935 7.95002L12.731 2.75627C12.6764 2.60618 12.5769 2.47653 12.4461 2.38491C12.3153 2.29329 12.1595 2.24414 11.9998 2.24414C11.84 2.24414 11.6842 2.29329 11.5534 2.38491C11.4226 2.47653 11.3231 2.60618 11.2685 2.75627L9.206 7.95002C9.15344 8.09177 9.06072 8.21513 8.93918 8.30503C8.81764 8.39494 8.67255 8.44749 8.52163 8.45627L2.99038 8.81252C2.2685 8.8594 1.98725 9.78752 2.54038 10.2469L6.77788 13.7813C6.89632 13.8792 6.98468 14.0086 7.03278 14.1546C7.08088 14.3005 7.08676 14.4571 7.04975 14.6063L5.78413 19.5938C5.5685 20.4375 6.4685 21.1219 7.19038 20.6625L11.5873 17.8781C11.7106 17.7997 11.8536 17.7581 11.9998 17.7581C12.1459 17.7581 12.289 17.7997 12.4123 17.8781Z" fill="#C2A17A"/>
<path d="M44.4123 17.8781L49.1373 20.8781C49.7466 21.2625 50.4966 20.6906 50.3185 19.9875L48.9498 14.6063C48.9127 14.4571 48.9186 14.3005 48.9667 14.1546C49.0148 14.0086 49.1032 13.8792 49.2216 13.7813L53.4591 10.2469C54.0123 9.78752 53.731 8.8594 53.0091 8.81252L47.4779 8.45627C47.327 8.44749 47.1819 8.39494 47.0603 8.30503C46.9388 8.21513 46.8461 8.09177 46.7935 7.95002L44.731 2.75627C44.6764 2.60618 44.5769 2.47653 44.4461 2.38491C44.3153 2.29329 44.1595 2.24414 43.9998 2.24414C43.84 2.24414 43.6842 2.29329 43.5534 2.38491C43.4226 2.47653 43.3231 2.60618 43.2685 2.75627L41.206 7.95002C41.1534 8.09177 41.0607 8.21513 40.9392 8.30503C40.8176 8.39494 40.6725 8.44749 40.5216 8.45627L34.9904 8.81252C34.2685 8.8594 33.9873 9.78752 34.5404 10.2469L38.7779 13.7813C38.8963 13.8792 38.9847 14.0086 39.0328 14.1546C39.0809 14.3005 39.0868 14.4571 39.0498 14.6063L37.7841 19.5938C37.5685 20.4375 38.4685 21.1219 39.1904 20.6625L43.5873 17.8781C43.7106 17.7997 43.8536 17.7581 43.9998 17.7581C44.1459 17.7581 44.289 17.7997 44.4123 17.8781Z" fill="#C2A17A"/>
<path d="M76.4123 17.8781L81.1373 20.8781C81.7466 21.2625 82.4966 20.6906 82.3185 19.9875L80.9498 14.6063C80.9127 14.4571 80.9186 14.3005 80.9667 14.1546C81.0148 14.0086 81.1032 13.8792 81.2216 13.7813L85.4591 10.2469C86.0123 9.78752 85.731 8.8594 85.0091 8.81252L79.4779 8.45627C79.327 8.44749 79.1819 8.39494 79.0603 8.30503C78.9388 8.21513 78.8461 8.09177 78.7935 7.95002L76.731 2.75627C76.6764 2.60618 76.5769 2.47653 76.4461 2.38491C76.3153 2.29329 76.1595 2.24414 75.9998 2.24414C75.84 2.24414 75.6842 2.29329 75.5534 2.38491C75.4226 2.47653 75.3231 2.60618 75.2685 2.75627L73.206 7.95002C73.1534 8.09177 73.0607 8.21513 72.9392 8.30503C72.8176 8.39494 72.6725 8.44749 72.5216 8.45627L66.9904 8.81252C66.2685 8.8594 65.9873 9.78752 66.5404 10.2469L70.7779 13.7813C70.8963 13.8792 70.9847 14.0086 71.0328 14.1546C71.0809 14.3005 71.0868 14.4571 71.0498 14.6063L69.7841 19.5938C69.5685 20.4375 70.4685 21.1219 71.1904 20.6625L75.5873 17.8781C75.7106 17.7997 75.8536 17.7581 75.9998 17.7581C76.1459 17.7581 76.289 17.7997 76.4123 17.8781Z" fill="#C2A17A"/>
<path d="M108.412 17.8781L113.137 20.8781C113.747 21.2625 114.497 20.6906 114.319 19.9875L112.95 14.6063C112.913 14.4571 112.919 14.3005 112.967 14.1546C113.015 14.0086 113.103 13.8792 113.222 13.7813L117.459 10.2469C118.012 9.78752 117.731 8.8594 117.009 8.81252L111.478 8.45627C111.327 8.44749 111.182 8.39494 111.06 8.30503C110.939 8.21513 110.846 8.09177 110.794 7.95002L108.731 2.75627C108.676 2.60618 108.577 2.47653 108.446 2.38491C108.315 2.29329 108.159 2.24414 108 2.24414C107.84 2.24414 107.684 2.29329 107.553 2.38491C107.423 2.47653 107.323 2.60618 107.269 2.75627L105.206 7.95002C105.153 8.09177 105.061 8.21513 104.939 8.30503C104.818 8.39494 104.673 8.44749 104.522 8.45627L98.9904 8.81252C98.2685 8.8594 97.9873 9.78752 98.5404 10.2469L102.778 13.7813C102.896 13.8792 102.985 14.0086 103.033 14.1546C103.081 14.3005 103.087 14.4571 103.05 14.6063L101.784 19.5938C101.569 20.4375 102.469 21.1219 103.19 20.6625L107.587 17.8781C107.711 17.7997 107.854 17.7581 108 17.7581C108.146 17.7581 108.289 17.7997 108.412 17.8781Z" fill="#C2A17A"/>
<path d="M140.412 17.8781L145.137 20.8781C145.747 21.2625 146.497 20.6906 146.319 19.9875L144.95 14.6063C144.913 14.4571 144.919 14.3005 144.967 14.1546C145.015 14.0086 145.103 13.8792 145.222 13.7813L149.459 10.2469C150.012 9.78752 149.731 8.8594 149.009 8.81252L143.478 8.45627C143.327 8.44749 143.182 8.39494 143.06 8.30503C142.939 8.21513 142.846 8.09177 142.794 7.95002L140.731 2.75627C140.676 2.60618 140.577 2.47653 140.446 2.38491C140.315 2.29329 140.159 2.24414 140 2.24414C139.84 2.24414 139.684 2.29329 139.553 2.38491C139.423 2.47653 139.323 2.60618 139.269 2.75627L137.206 7.95002C137.153 8.09177 137.061 8.21513 136.939 8.30503C136.818 8.39494 136.673 8.44749 136.522 8.45627L130.99 8.81252C130.269 8.8594 129.987 9.78752 130.54 10.2469L134.778 13.7813C134.896 13.8792 134.985 14.0086 135.033 14.1546C135.081 14.3005 135.087 14.4571 135.05 14.6063L133.784 19.5938C133.569 20.4375 134.469 21.1219 135.19 20.6625L139.587 17.8781C139.711 17.7997 139.854 17.7581 140 17.7581C140.146 17.7581 140.289 17.7997 140.412 17.8781Z" fill="#C2A17A"/>
</svg>
