<svg width="40" height="40" viewBox="0 0 40 40" fill="none" xmlns="http://www.w3.org/2000/svg">
<path d="M39.9834 20C39.9742 31.0457 31.0199 40 19.9834 40C8.94684 40 0.00740729 31.0457 0.0165851 20C0.025763 8.95431 8.98008 0 20.0166 0C31.0531 0 39.9926 8.95431 39.9834 20Z" fill="#C2A17A"/>
<path d="M12.142 17C12.4442 17.0056 12.7612 17.0223 13.093 17.0503C13.4308 17.0782 13.7596 17.1313 14.0796 17.2095L14.0085 17.9218C13.7537 17.9162 13.4575 17.9106 13.1197 17.905C12.7879 17.8939 12.4679 17.8883 12.1598 17.8883C11.9702 17.8883 11.8072 17.8939 11.671 17.905C11.5406 17.9162 11.4339 17.9441 11.351 17.9888C11.268 18.0335 11.2058 18.1034 11.1643 18.1983C11.1288 18.2877 11.111 18.4134 11.111 18.5754C11.111 18.8268 11.1643 19.0056 11.271 19.1117C11.3836 19.2179 11.5643 19.3017 11.8132 19.3631L13.0219 19.6983C13.5078 19.838 13.8426 20.0419 14.0263 20.3101C14.21 20.5726 14.3018 20.9246 14.3018 21.3659C14.3018 21.6955 14.2603 21.9665 14.1774 22.1788C14.0944 22.3911 13.967 22.5559 13.7952 22.6732C13.6234 22.7905 13.3982 22.8743 13.1197 22.9246C12.8412 22.9749 12.5064 23 12.1154 23C11.9139 23 11.6354 22.9888 11.2799 22.9665C10.9303 22.9441 10.5303 22.8883 10.08 22.7989L10.1511 22.0447C10.5007 22.0559 10.794 22.067 11.031 22.0782C11.268 22.0838 11.4725 22.0866 11.6443 22.0866C11.8161 22.0866 11.9761 22.0866 12.1242 22.0866C12.3968 22.0866 12.6101 22.0698 12.7642 22.0363C12.9182 22.0028 13.0249 21.933 13.0842 21.8268C13.1493 21.7207 13.1819 21.567 13.1819 21.3659C13.1819 21.1927 13.1582 21.0587 13.1108 20.9637C13.0693 20.8631 12.9982 20.7849 12.8975 20.729C12.7968 20.6732 12.6664 20.6257 12.5064 20.5866L11.2532 20.2263C10.791 20.0922 10.4651 19.8939 10.2755 19.6313C10.0918 19.3687 10 19.0168 10 18.5754C10 18.2458 10.0415 17.9777 10.1244 17.7709C10.2074 17.5587 10.3348 17.3994 10.5066 17.2933C10.6785 17.1816 10.8977 17.1061 11.1643 17.067C11.4369 17.0223 11.7628 17 12.142 17Z" fill="white"/>
<path d="M18.161 17.1089C18.2558 17.1089 18.3387 17.1341 18.4098 17.1844C18.4809 17.2346 18.5313 17.3017 18.5609 17.3855L20.4185 22.8911H19.2809L17.8766 18.433C17.8529 18.3436 17.8292 18.2542 17.8054 18.1648C17.7817 18.0754 17.761 17.9888 17.7432 17.905H17.4944C17.4766 17.9888 17.4559 18.0754 17.4322 18.1648C17.4084 18.2542 17.3818 18.3436 17.3522 18.433L15.9567 22.8911H14.8191L16.6767 17.3855C16.7004 17.3017 16.7478 17.2346 16.8189 17.1844C16.8959 17.1341 16.9818 17.1089 17.0766 17.1089H18.161ZM19.192 20.419V21.2402H16.0367V20.419H19.192Z" fill="white"/>
<path d="M22.3175 17.1089V21.5503C22.3175 21.7123 22.3619 21.8352 22.4508 21.919C22.5456 21.9972 22.6789 22.0363 22.8507 22.0363H25.0194L25.0728 22.8324C24.6698 22.8659 24.2491 22.8855 23.8107 22.8911C23.3781 22.9022 22.9485 22.9078 22.5219 22.9078C22.0716 22.9078 21.7397 22.7989 21.5264 22.581C21.319 22.3631 21.2153 22.0866 21.2153 21.7514V17.1089H22.3175Z" fill="white"/>
<path d="M27.2091 17.0922C27.5173 17.0922 27.8313 17.0922 28.1513 17.0922C28.4772 17.0922 28.7972 17.0978 29.1112 17.1089C29.4252 17.1201 29.7215 17.1369 30 17.1592L29.9467 17.9385H27.5469C27.381 17.9385 27.2566 17.9777 27.1736 18.0559C27.0966 18.1341 27.0581 18.257 27.0581 18.4246V21.5754C27.0581 21.743 27.0966 21.8659 27.1736 21.9441C27.2566 22.0223 27.381 22.0615 27.5469 22.0615H29.9467L30 22.8408C29.7215 22.8631 29.4252 22.8799 29.1112 22.8911C28.7972 22.8966 28.4772 22.8994 28.1513 22.8994C27.8313 22.905 27.5173 22.9078 27.2091 22.9078C26.8299 22.9078 26.5248 22.8101 26.2937 22.6145C26.0685 22.4134 25.953 22.1453 25.947 21.8101V18.1899C25.953 17.8547 26.0685 17.5894 26.2937 17.3939C26.5248 17.1927 26.8299 17.0922 27.2091 17.0922ZM26.107 19.4804H29.6089V20.2514H26.107V19.4804Z" fill="white"/>
</svg>
