<svg width="40" height="32" viewBox="0 0 40 32" fill="none" xmlns="http://www.w3.org/2000/svg">
<circle cx="12" cy="13" r="12" fill="#FFF2E3"/>
<path d="M37.5391 14.1507C37.2451 13.8595 36.8474 13.696 36.433 13.6961C36.1976 13.6967 35.9631 13.7267 35.7351 13.7855V9.64257C35.7343 9.20717 35.5606 8.78983 35.2519 8.48195C34.9432 8.17408 34.5248 8.00077 34.0883 8H25.1069C24.6914 7.99992 24.2927 8.16417 23.9984 8.45676C23.7043 8.16404 23.3057 7.99976 22.8902 8H13.9117C13.4751 8.0007 13.0566 8.17398 12.7479 8.48186C12.4392 8.78974 12.2654 9.20713 12.2646 9.64257V13.7855C12.0367 13.7267 11.8024 13.6967 11.567 13.6961C11.1516 13.6968 10.7534 13.8618 10.4597 14.1548C10.166 14.4478 10.0007 14.8449 10 15.2593V23.5355C10 23.6587 10.0491 23.7769 10.1364 23.864C10.2237 23.9511 10.3421 24 10.4656 24H37.5344C37.6579 24 37.7763 23.9511 37.8636 23.864C37.9509 23.7769 38 23.6587 38 23.5355V15.2593C37.9999 15.0533 37.9592 14.8495 37.8801 14.6592C37.8011 14.469 37.6852 14.2962 37.5391 14.1507ZM25.1069 8.92891H34.0883C34.278 8.92912 34.4599 9.00437 34.594 9.13817C34.7281 9.27196 34.8036 9.45336 34.8038 9.64257V14.2218C34.4396 14.4798 34.1424 14.8208 33.9369 15.2165C33.7315 15.6121 33.6238 16.051 33.6227 16.4966V16.9289C33.3188 16.7418 32.9687 16.6426 32.6115 16.6425H25.4749C25.1178 16.6426 24.7677 16.7418 24.4638 16.9289V9.56985C24.464 9.39983 24.5318 9.23685 24.6524 9.11668C24.773 8.99651 24.9365 8.92898 25.1069 8.92891ZM14.3773 18.5786C14.3773 18.3112 14.4839 18.0546 14.6735 17.8655C14.8631 17.6764 15.1203 17.5701 15.3885 17.5701H22.5222C22.7903 17.5701 23.0475 17.6764 23.2371 17.8655C23.4268 18.0546 23.5333 18.3112 23.5333 18.5786V19.145H14.3773V18.5786ZM24.4641 18.5786C24.4641 18.3112 24.5706 18.0546 24.7602 17.8655C24.9498 17.6764 25.207 17.5701 25.4752 17.5701H32.6118C32.88 17.5701 33.1372 17.6764 33.3268 17.8655C33.5164 18.0546 33.6229 18.3112 33.6229 18.5786V19.145H24.4641V18.5786ZM13.9117 8.92891H22.8902C23.0605 8.92905 23.2239 8.99662 23.3444 9.11679C23.4649 9.23696 23.5326 9.3999 23.5328 9.56985V16.9289C23.2289 16.7418 22.8788 16.6426 22.5216 16.6425H15.3882C15.0311 16.6426 14.681 16.7418 14.3771 16.9289V16.4963C14.3776 16.1275 14.3047 15.7623 14.1627 15.4218C14.0206 15.0813 13.8122 14.7723 13.5496 14.5127C13.4394 14.4063 13.3211 14.3087 13.1957 14.2207V9.64257C13.1959 9.45329 13.2715 9.27185 13.4057 9.13806C13.54 9.00426 13.7219 8.92905 13.9117 8.92891ZM37.0687 23.0711H10.9313V15.2593C10.9315 15.0911 10.9985 14.93 11.1177 14.8111C11.2369 14.6922 11.3984 14.6252 11.567 14.625C11.894 14.6235 12.2155 14.7091 12.4983 14.8731C12.6423 14.9558 12.7753 15.0564 12.8939 15.1725C13.0691 15.3458 13.208 15.552 13.3027 15.7793C13.3974 16.0065 13.4459 16.2502 13.4455 16.4963V19.6095C13.4455 19.7326 13.4946 19.8508 13.5819 19.9379C13.6692 20.025 13.7877 20.0739 13.9112 20.0739H34.0878C34.2113 20.0739 34.3297 20.025 34.417 19.9379C34.5044 19.8508 34.5534 19.7326 34.5534 19.6095V16.4963C34.5539 16.1662 34.6419 15.8421 34.8085 15.5568C34.9751 15.2716 35.2144 15.0353 35.502 14.872C35.7849 14.7085 36.1064 14.6233 36.4333 14.625C36.5169 14.6247 36.5997 14.6409 36.677 14.6727C36.7542 14.7045 36.8244 14.7512 36.8835 14.8101C36.9426 14.8691 36.9894 14.9391 37.0212 15.0162C37.0531 15.0933 37.0693 15.1759 37.069 15.2593L37.0687 23.0711Z" fill="#481C04"/>
<path d="M16.6801 13.6645H17.4337C17.4791 13.8223 17.5639 13.966 17.6803 14.0821C17.7967 14.1981 17.9407 14.2828 18.0989 14.328V15.0794C18.0989 15.1498 18.1269 15.2173 18.1768 15.2671C18.2267 15.3168 18.2944 15.3448 18.365 15.3448C18.4356 15.3448 18.5032 15.3168 18.5531 15.2671C18.603 15.2173 18.6311 15.1498 18.6311 15.0794V14.328C18.7892 14.2827 18.9332 14.198 19.0496 14.082C19.166 13.9659 19.2508 13.8223 19.2963 13.6645H20.0496C20.1201 13.6645 20.1878 13.6366 20.2377 13.5868C20.2876 13.537 20.3157 13.4695 20.3157 13.3991C20.3157 13.3287 20.2876 13.2612 20.2377 13.2115C20.1878 13.1617 20.1201 13.1337 20.0496 13.1337H19.296C19.2506 12.976 19.1658 12.8323 19.0494 12.7162C18.933 12.6001 18.789 12.5155 18.6308 12.4702V11.7176C18.6308 11.6472 18.6028 11.5797 18.5529 11.5299C18.503 11.4801 18.4353 11.4521 18.3647 11.4521C18.2942 11.4521 18.2265 11.4801 18.1766 11.5299C18.1267 11.5797 18.0986 11.6472 18.0986 11.7176V12.4702C17.9404 12.5154 17.7963 12.6 17.68 12.7161C17.5636 12.8322 17.4787 12.9759 17.4334 13.1337H16.6801C16.6096 13.1337 16.5419 13.1617 16.492 13.2115C16.4421 13.2612 16.4141 13.3287 16.4141 13.3991C16.4141 13.4695 16.4421 13.537 16.492 13.5868C16.5419 13.6366 16.6096 13.6645 16.6801 13.6645ZM18.3647 12.9596C18.4519 12.9596 18.5372 12.9853 18.6098 13.0336C18.6823 13.0819 18.7389 13.1506 18.7723 13.231C18.8057 13.3114 18.8144 13.3998 18.7974 13.4851C18.7804 13.5705 18.7384 13.6488 18.6768 13.7104C18.6151 13.7719 18.5365 13.8138 18.4509 13.8307C18.3654 13.8477 18.2767 13.839 18.1961 13.8056C18.1156 13.7723 18.0467 13.7159 17.9983 13.6436C17.9499 13.5712 17.924 13.4861 17.9241 13.3991C17.9239 13.2824 17.9703 13.1704 18.0529 13.0877C18.1355 13.0051 18.2477 12.9585 18.3647 12.9583V12.9596Z" fill="#481C04"/>
<path d="M27.9497 13.6645H28.703C28.7484 13.8223 28.8333 13.9659 28.9496 14.082C29.066 14.198 29.21 14.2827 29.3682 14.328V15.0794C29.3682 15.1498 29.3962 15.2173 29.4461 15.2671C29.496 15.3168 29.5637 15.3448 29.6343 15.3448C29.7048 15.3448 29.7725 15.3168 29.8224 15.2671C29.8723 15.2173 29.9003 15.1498 29.9003 15.0794V14.328C30.0585 14.2828 30.2026 14.1981 30.3189 14.0821C30.4353 13.966 30.5202 13.8223 30.5655 13.6645H31.3191C31.3897 13.6645 31.4573 13.6366 31.5072 13.5868C31.5571 13.537 31.5852 13.4695 31.5852 13.3991C31.5852 13.3287 31.5571 13.2612 31.5072 13.2115C31.4573 13.1617 31.3897 13.1337 31.3191 13.1337H30.5653C30.52 12.9759 30.4351 12.8322 30.3188 12.7161C30.2024 12.6 30.0583 12.5154 29.9001 12.4702V11.7176C29.9001 11.6472 29.872 11.5797 29.8221 11.5299C29.7722 11.4801 29.7046 11.4521 29.634 11.4521C29.5634 11.4521 29.4957 11.4801 29.4458 11.5299C29.3959 11.5797 29.3679 11.6472 29.3679 11.7176V12.4702C29.2097 12.5155 29.0657 12.6001 28.9493 12.7162C28.8329 12.8323 28.7481 12.976 28.7027 13.1337H27.9497C27.8791 13.1337 27.8114 13.1617 27.7615 13.2115C27.7116 13.2612 27.6836 13.3287 27.6836 13.3991C27.6836 13.4695 27.7116 13.537 27.7615 13.5868C27.8114 13.6366 27.8791 13.6645 27.9497 13.6645ZM29.6343 12.9596C29.7215 12.9596 29.8068 12.9853 29.8793 13.0336C29.9519 13.0819 30.0084 13.1506 30.0418 13.231C30.0752 13.3114 30.084 13.3998 30.067 13.4851C30.05 13.5705 30.008 13.6488 29.9463 13.7104C29.8846 13.7719 29.806 13.8138 29.7205 13.8307C29.6349 13.8477 29.5462 13.839 29.4657 13.8056C29.3851 13.7723 29.3162 13.7159 29.2678 13.6436C29.2194 13.5712 29.1936 13.4861 29.1936 13.3991C29.1935 13.3413 29.2048 13.2841 29.2269 13.2306C29.249 13.1772 29.2814 13.1286 29.3224 13.0877C29.3633 13.0467 29.4119 13.0142 29.4654 12.992C29.5189 12.9698 29.5763 12.9584 29.6343 12.9583V12.9596Z" fill="#481C04"/>
</svg>
