<svg width="37" height="32" viewBox="0 0 37 32" fill="none" xmlns="http://www.w3.org/2000/svg">
<circle cx="12" cy="12" r="12" fill="#FFF2E3"/>
<path d="M11.8685 14.3037H12.4421C12.4766 14.4272 12.5412 14.5397 12.6298 14.6305C12.7184 14.7214 12.828 14.7877 12.9484 14.8231V15.4114C12.9484 15.4665 12.9698 15.5193 13.0078 15.5583C13.0457 15.5973 13.0973 15.6192 13.151 15.6192C13.2047 15.6192 13.2562 15.5973 13.2942 15.5583C13.3322 15.5193 13.3535 15.4665 13.3535 15.4114V14.8231C13.4739 14.7876 13.5835 14.7213 13.6721 14.6305C13.7606 14.5396 13.8252 14.4272 13.8598 14.3037H14.4332C14.4869 14.3037 14.5384 14.2818 14.5764 14.2428C14.6144 14.2038 14.6357 14.151 14.6357 14.0959C14.6357 14.0408 14.6144 13.9879 14.5764 13.9489C14.5384 13.91 14.4869 13.8881 14.4332 13.8881H13.8596C13.8251 13.7645 13.7605 13.6521 13.6719 13.5612C13.5833 13.4703 13.4737 13.404 13.3533 13.3686V12.7793C13.3533 12.7242 13.332 12.6714 13.294 12.6324C13.256 12.5934 13.2045 12.5715 13.1508 12.5715C13.097 12.5715 13.0455 12.5934 13.0076 12.6324C12.9696 12.6714 12.9482 12.7242 12.9482 12.7793V13.3686C12.8278 13.404 12.7181 13.4702 12.6296 13.5611C12.541 13.652 12.4764 13.7645 12.4419 13.8881H11.8685C11.8148 13.8881 11.7633 13.91 11.7253 13.9489C11.6874 13.9879 11.666 14.0408 11.666 14.0959C11.666 14.151 11.6874 14.2038 11.7253 14.2428C11.7633 14.2818 11.8148 14.3037 11.8685 14.3037ZM13.1508 13.7518C13.2172 13.7517 13.2821 13.7719 13.3373 13.8097C13.3925 13.8475 13.4355 13.9013 13.461 13.9642C13.4864 14.0271 13.4931 14.0964 13.4801 14.1632C13.4672 14.23 13.4352 14.2914 13.3883 14.3395C13.3413 14.3877 13.2815 14.4205 13.2164 14.4338C13.1513 14.447 13.0838 14.4402 13.0224 14.4141C12.9611 14.388 12.9087 14.3439 12.8718 14.2872C12.835 14.2306 12.8153 14.164 12.8154 14.0959C12.8153 14.0045 12.8505 13.9168 12.9134 13.8521C12.9763 13.7873 13.0617 13.7509 13.1508 13.7507V13.7518Z" fill="#481C04"/>
<path d="M19.2943 14.3037H19.8679C19.9024 14.4272 19.967 14.5397 20.0556 14.6305C20.1442 14.7214 20.2538 14.7877 20.3742 14.8231V15.4114C20.3742 15.4665 20.3956 15.5193 20.4335 15.5583C20.4715 15.5973 20.523 15.6192 20.5767 15.6192C20.6305 15.6192 20.682 15.5973 20.72 15.5583C20.7579 15.5193 20.7793 15.4665 20.7793 15.4114V14.8231C20.8997 14.7876 21.0093 14.7213 21.0978 14.6305C21.1864 14.5396 21.251 14.4272 21.2856 14.3037H21.859C21.9127 14.3037 21.9642 14.2818 22.0022 14.2428C22.0402 14.2038 22.0615 14.151 22.0615 14.0959C22.0615 14.0408 22.0402 13.9879 22.0022 13.9489C21.9642 13.91 21.9127 13.8881 21.859 13.8881H21.2854C21.2509 13.7645 21.1863 13.6521 21.0977 13.5612C21.0091 13.4703 20.8995 13.404 20.7791 13.3686V12.7793C20.7791 12.7242 20.7577 12.6714 20.7198 12.6324C20.6818 12.5934 20.6303 12.5715 20.5765 12.5715C20.5228 12.5715 20.4713 12.5934 20.4333 12.6324C20.3954 12.6714 20.374 12.7242 20.374 12.7793V13.3686C20.2536 13.404 20.1439 13.4702 20.0553 13.5611C19.9668 13.652 19.9022 13.7645 19.8677 13.8881H19.2943C19.2406 13.8881 19.1891 13.91 19.1511 13.9489C19.1131 13.9879 19.0918 14.0408 19.0918 14.0959C19.0918 14.151 19.1131 14.2038 19.1511 14.2428C19.1891 14.2818 19.2406 14.3037 19.2943 14.3037ZM20.5765 13.7518C20.6429 13.7517 20.7078 13.7719 20.7631 13.8097C20.8183 13.8475 20.8613 13.9013 20.8868 13.9642C20.9122 14.0271 20.9188 14.0964 20.9059 14.1632C20.893 14.23 20.861 14.2914 20.814 14.3395C20.7671 14.3877 20.7073 14.4205 20.6422 14.4338C20.5771 14.447 20.5096 14.4402 20.4482 14.4141C20.3869 14.388 20.3345 14.3439 20.2976 14.2872C20.2608 14.2306 20.2411 14.164 20.2412 14.0959C20.241 14.0045 20.2763 13.9168 20.3392 13.8521C20.4021 13.7873 20.4875 13.7509 20.5765 13.7507V13.7518Z" fill="#481C04"/>
<path d="M26.7162 14.3037H27.2898C27.3243 14.4272 27.3889 14.5397 27.4775 14.6305C27.566 14.7214 27.6757 14.7877 27.7961 14.8231V15.4114C27.7961 15.4665 27.8174 15.5193 27.8554 15.5583C27.8934 15.5973 27.9449 15.6192 27.9986 15.6192C28.0523 15.6192 28.1039 15.5973 28.1418 15.5583C28.1798 15.5193 28.2012 15.4665 28.2012 15.4114V14.8231C28.3215 14.7876 28.4311 14.7213 28.5197 14.6305C28.6083 14.5396 28.6729 14.4272 28.7075 14.3037H29.2808C29.3346 14.3037 29.3861 14.2818 29.424 14.2428C29.462 14.2038 29.4834 14.151 29.4834 14.0959C29.4834 14.0408 29.462 13.9879 29.424 13.9489C29.3861 13.91 29.3346 13.8881 29.2808 13.8881H28.7073C28.6727 13.7645 28.6081 13.6521 28.5196 13.5612C28.431 13.4703 28.3214 13.404 28.2009 13.3686V12.7793C28.2009 12.7242 28.1796 12.6714 28.1416 12.6324C28.1036 12.5934 28.0521 12.5715 27.9984 12.5715C27.9447 12.5715 27.8932 12.5934 27.8552 12.6324C27.8172 12.6714 27.7959 12.7242 27.7959 12.7793V13.3686C27.6755 13.404 27.5658 13.4702 27.4772 13.5611C27.3886 13.652 27.3241 13.7645 27.2896 13.8881H26.7162C26.6625 13.8881 26.611 13.91 26.573 13.9489C26.535 13.9879 26.5137 14.0408 26.5137 14.0959C26.5137 14.151 26.535 14.2038 26.573 14.2428C26.611 14.2818 26.6625 14.3037 26.7162 14.3037ZM27.9984 13.7518C28.0648 13.7517 28.1297 13.7719 28.1849 13.8097C28.2402 13.8475 28.2832 13.9013 28.3086 13.9642C28.3341 14.0271 28.3407 14.0964 28.3278 14.1632C28.3148 14.23 28.2829 14.2914 28.2359 14.3395C28.189 14.3877 28.1292 14.4205 28.064 14.4338C27.9989 14.447 27.9314 14.4402 27.8701 14.4141C27.8088 14.388 27.7564 14.3439 27.7195 14.2872C27.6826 14.2306 27.663 14.164 27.663 14.0959C27.6629 14.0045 27.6982 13.9168 27.7611 13.8521C27.824 13.7873 27.9093 13.7509 27.9984 13.7507V13.7518Z" fill="#481C04"/>
<path d="M7.5 10.8945H34.5V14.7755C34.5 16.7085 32.933 18.2755 31 18.2755H11C9.067 18.2755 7.5 16.7085 7.5 14.7755V10.8945Z" stroke="#481C04"/>
<mask id="path-6-inside-1_448_18965" fill="white">
<path d="M12.832 18.7756H29.1654V19.1702C29.1654 20.2748 28.2699 21.1702 27.1654 21.1702H14.832C13.7275 21.1702 12.832 20.2748 12.832 19.1702V18.7756Z"/>
</mask>
<path d="M12.832 18.7756H29.1654H12.832ZM30.1654 19.1702C30.1654 20.827 28.8222 22.1702 27.1654 22.1702H14.832C13.1752 22.1702 11.832 20.827 11.832 19.1702H13.832C13.832 19.7225 14.2797 20.1702 14.832 20.1702H27.1654C27.7177 20.1702 28.1654 19.7225 28.1654 19.1702H30.1654ZM14.832 22.1702C13.1752 22.1702 11.832 20.827 11.832 19.1702V18.7756H13.832V19.1702C13.832 19.7225 14.2797 20.1702 14.832 20.1702V22.1702ZM30.1654 18.7756V19.1702C30.1654 20.827 28.8222 22.1702 27.1654 22.1702V20.1702C27.7177 20.1702 28.1654 19.7225 28.1654 19.1702V18.7756H30.1654Z" fill="#481C04" mask="url(#path-6-inside-1_448_18965)"/>
<mask id="path-8-inside-2_448_18965" fill="white">
<path d="M15.168 20.9521H19.6225V21.9998C19.6225 23.1043 18.7271 23.9998 17.6225 23.9998H17.168C16.0634 23.9998 15.168 23.1043 15.168 21.9998V20.9521Z"/>
</mask>
<path d="M15.168 20.9521H19.6225H15.168ZM20.6225 21.9998C20.6225 23.6566 19.2794 24.9998 17.6225 24.9998H17.168C15.5111 24.9998 14.168 23.6566 14.168 21.9998H16.168C16.168 22.5521 16.6157 22.9998 17.168 22.9998H17.6225C18.1748 22.9998 18.6225 22.5521 18.6225 21.9998H20.6225ZM17.168 24.9998C15.5111 24.9998 14.168 23.6566 14.168 21.9998V20.9521H16.168V21.9998C16.168 22.5521 16.6157 22.9998 17.168 22.9998V24.9998ZM20.6225 20.9521V21.9998C20.6225 23.6566 19.2794 24.9998 17.6225 24.9998V22.9998C18.1748 22.9998 18.6225 22.5521 18.6225 21.9998V20.9521H20.6225Z" fill="#481C04" mask="url(#path-8-inside-2_448_18965)"/>
<mask id="path-10-inside-3_448_18965" fill="white">
<path d="M22.168 20.9521H26.6225V21.9998C26.6225 23.1043 25.7271 23.9998 24.6225 23.9998H24.168C23.0634 23.9998 22.168 23.1043 22.168 21.9998V20.9521Z"/>
</mask>
<path d="M22.168 20.9521H26.6225H22.168ZM27.6225 21.9998C27.6225 23.6566 26.2794 24.9998 24.6225 24.9998H24.168C22.5111 24.9998 21.168 23.6566 21.168 21.9998H23.168C23.168 22.5521 23.6157 22.9998 24.168 22.9998H24.6225C25.1748 22.9998 25.6225 22.5521 25.6225 21.9998H27.6225ZM24.168 24.9998C22.5111 24.9998 21.168 23.6566 21.168 21.9998V20.9521H23.168V21.9998C23.168 22.5521 23.6157 22.9998 24.168 22.9998V24.9998ZM27.6225 20.9521V21.9998C27.6225 23.6566 26.2794 24.9998 24.6225 24.9998V22.9998C25.1748 22.9998 25.6225 22.5521 25.6225 21.9998V20.9521H27.6225Z" fill="#481C04" mask="url(#path-10-inside-3_448_18965)"/>
<mask id="path-12-inside-4_448_18965" fill="white">
<path d="M7 10.3945H35C35 9.07205 33.9279 7.99997 32.6054 7.99997H9.39456C8.07208 7.99997 7 9.07205 7 10.3945Z"/>
</mask>
<path d="M7 10.3945H35H7ZM36 10.3945C36 8.51977 34.4802 6.99997 32.6054 6.99997H9.39456C7.5198 6.99997 6 8.51977 6 10.3945H8C8 9.62434 8.62437 8.99997 9.39456 8.99997H32.6054C33.3756 8.99997 34 9.62434 34 10.3945H36ZM9.39456 6.99997C7.5198 6.99997 6 8.51977 6 10.3945H8C8 9.62434 8.62437 8.99997 9.39456 8.99997V6.99997ZM36 10.3945C36 8.51977 34.4802 6.99997 32.6054 6.99997V8.99997C33.3756 8.99997 34 9.62434 34 10.3945H36Z" fill="#481C04" mask="url(#path-12-inside-4_448_18965)"/>
</svg>
