<svg width="37" height="36" viewBox="0 0 37 36" fill="none" xmlns="http://www.w3.org/2000/svg">
<ellipse cx="12" cy="11.9512" rx="12" ry="11.9512" fill="#FFF2E3"/>
<path d="M11 19.9937V20.994C11 22.0989 11.8948 22.9948 13 22.9948L29 22.9944C30.1044 22.9944 31 22.0989 31 20.9932C31 20.994 31 19.9937 31 19.9937H11V19.9937Z" stroke="#481C04" stroke-miterlimit="10" stroke-linecap="round" stroke-linejoin="round"/>
<path d="M13 19.9939L15.4792 5.94372C15.766 4.3175 17.3508 2.98779 19 2.98779H23.0004C24.65 2.98779 26.2348 4.3175 26.5216 5.94372L29.0004 19.9939H13Z" stroke="#481C04" stroke-miterlimit="10" stroke-linecap="round" stroke-linejoin="round"/>
<path d="M14.5004 35.0001H13L15.0008 22.9951H17.5008L14.5004 35.0001Z" stroke="#481C04" stroke-miterlimit="10" stroke-linecap="round" stroke-linejoin="round"/>
<path d="M27.4996 35.0001H29.0004L26.9996 22.9951H24.5L27.4996 35.0001Z" stroke="#481C04" stroke-miterlimit="10" stroke-linecap="round" stroke-linejoin="round"/>
</svg>
