<svg width="35" height="33" viewBox="0 0 35 33" fill="none" xmlns="http://www.w3.org/2000/svg">
<circle cx="12" cy="12" r="12" fill="#FFF2E3"/>
<path d="M29.6818 15.7209V13.2861C29.6792 11.3545 28.8956 9.50273 27.5028 8.13687C26.1101 6.771 24.2218 6.00254 22.2521 6H15.7479C13.7782 6.00254 11.8899 6.771 10.4972 8.13687C9.10441 9.50273 8.32081 11.3545 8.31822 13.2861V15.7209C7.38728 15.8903 6.54602 16.3736 5.94006 17.0871C5.3341 17.8006 5.00156 18.6994 5 19.6279V23.7048C5.00042 24.06 5.1445 24.4005 5.40062 24.6516C5.65674 24.9027 6.00398 25.044 6.36616 25.0443H7.19955V27.5462C7.19951 27.6058 7.21146 27.6649 7.2347 27.7199C7.25794 27.775 7.29202 27.825 7.33499 27.8672C7.37796 27.9093 7.42899 27.9427 7.48514 27.9655C7.54129 27.9883 7.60147 28 7.66225 28H9.89828C10.021 28 10.1387 27.9522 10.2255 27.8671C10.3122 27.782 10.361 27.6666 10.361 27.5462V25.0443H27.639V27.5462C27.639 27.6666 27.6878 27.782 27.7745 27.8671C27.8613 27.9522 27.979 28 28.1017 28H30.3378C30.4605 28 30.5782 27.9522 30.6649 27.8671C30.7517 27.782 30.8005 27.6666 30.8005 27.5462V25.0443H31.6338C31.996 25.044 32.3433 24.9027 32.5994 24.6516C32.8555 24.4005 32.9996 24.06 33 23.7048V19.6279C32.9984 18.6994 32.6659 17.8006 32.0599 17.0871C31.454 16.3736 30.6127 15.8903 29.6818 15.7209ZM15.7479 6.90649H22.2521C23.9765 6.90862 25.6296 7.58133 26.8489 8.77709C28.0682 9.97285 28.7542 11.594 28.7564 13.2851V15.6512H28.0914V13.6909C28.0897 12.1441 27.4623 10.6612 26.3471 9.56746C25.2318 8.47373 23.7196 7.85852 22.1424 7.8568H15.8576C14.2804 7.85858 12.7683 8.47382 11.653 9.56754C10.5378 10.6613 9.91041 12.1441 9.90859 13.6909V15.6512H9.24363V13.2861C9.24552 11.5949 9.93135 9.97344 11.1507 8.77746C12.37 7.58147 14.0233 6.90862 15.7479 6.90649ZM25.4514 15.6512H20.5319V12.7344C20.532 12.6584 20.5628 12.5855 20.6177 12.5318C20.6725 12.478 20.7469 12.4478 20.8244 12.4478H25.1605C25.2378 12.4482 25.3118 12.4785 25.3663 12.5322C25.4208 12.5859 25.4514 12.6586 25.4514 12.7344V15.6512ZM25.1605 11.5403H20.8244C20.5016 11.5407 20.1921 11.6666 19.9638 11.8904C19.7355 12.1143 19.6071 12.4178 19.6068 12.7344V15.6512H18.3935V12.7344C18.3931 12.4177 18.2647 12.1142 18.0364 11.8903C17.8081 11.6665 17.4985 11.5406 17.1756 11.5403H12.8395C12.5169 11.541 12.2077 11.6671 11.9798 11.8909C11.7518 12.1147 11.6236 12.418 11.6232 12.7344V15.6512H10.834V13.6919C10.8355 12.3858 11.3653 11.1336 12.3071 10.21C13.2489 9.28641 14.5257 8.76687 15.8576 8.76536H22.1424C23.4743 8.7668 24.7512 9.28632 25.693 10.2099C26.6348 11.1335 27.1645 12.3858 27.166 13.6919V15.6512H26.3768V12.7344C26.3764 12.418 26.2482 12.1147 26.0202 11.8909C25.7923 11.6671 25.4831 11.541 25.1605 11.5403ZM17.4681 15.6512H12.5486V12.7344C12.5486 12.6586 12.5792 12.5859 12.6337 12.5322C12.6882 12.4785 12.7622 12.4482 12.8395 12.4478H17.1756C17.2531 12.4479 17.3274 12.4781 17.3822 12.5318C17.4369 12.5856 17.4677 12.6584 17.4678 12.7344L17.4681 15.6512ZM9.05405 16.5587H28.9459C29.7756 16.5596 30.571 16.8833 31.1576 17.4587C31.7442 18.0341 32.074 18.8143 32.0746 19.6279V21.8483H5.9254V19.6279C5.92603 18.8143 6.25582 18.0341 6.84239 17.4587C7.42896 16.8833 8.22438 16.5596 9.05405 16.5587ZM9.43558 27.0917H8.12495V25.0433H9.43558V27.0917ZM29.8751 27.0917H28.5644V25.0433H29.8751V27.0917ZM32.0746 23.7048C32.0745 23.8194 32.028 23.9292 31.9453 24.0102C31.8627 24.0912 31.7507 24.1367 31.6338 24.1368H6.36616C6.24933 24.1367 6.1373 24.0912 6.05467 24.0102C5.97203 23.9292 5.92554 23.8194 5.9254 23.7048V22.7558H32.0746V23.7048Z" fill="#481C04"/>
</svg>
