<svg width="42" height="34" viewBox="0 0 42 34" fill="none" xmlns="http://www.w3.org/2000/svg">
<circle cx="12" cy="12" r="12" fill="#FFF2E3"/>
<path d="M39.2875 3H12.7125C12.5235 3 12.3423 3.0582 12.2087 3.1618C12.0751 3.26539 12 3.4059 12 3.55241V29.498C11.9999 29.5706 12.0183 29.6424 12.0541 29.7095C12.0899 29.7765 12.1424 29.8374 12.2086 29.8887C12.2747 29.94 12.3533 29.9807 12.4398 30.0085C12.5263 30.0362 12.6189 30.0505 12.7125 30.0504H14.7568V32.4476C14.7568 32.5941 14.8319 32.7346 14.9655 32.8382C15.0992 32.9418 15.2804 33 15.4694 33H18.2262C18.4152 33 18.5964 32.9418 18.73 32.8382C18.8637 32.7346 18.9387 32.5941 18.9387 32.4476V30.0504H33.0613V32.4476C33.0613 32.5941 33.1363 32.7346 33.27 32.8382C33.4036 32.9418 33.5848 33 33.7738 33H36.5306C36.7196 33 36.9008 32.9418 37.0345 32.8382C37.1681 32.7346 37.2432 32.5941 37.2432 32.4476V30.0504H39.2875C39.3811 30.0505 39.4737 30.0362 39.5602 30.0085C39.6467 29.9807 39.7253 29.94 39.7914 29.8887C39.8576 29.8374 39.9101 29.7765 39.9459 29.7095C39.9817 29.6424 40.0001 29.5706 40 29.498V3.55241C40 3.4059 39.9249 3.26539 39.7913 3.1618C39.6577 3.0582 39.4765 3 39.2875 3ZM17.5137 31.8952H16.1819V30.0504H17.5137V31.8952ZM35.8181 31.8952H34.4863V30.0504H35.8181V31.8952ZM38.575 28.9456H13.425V4.10482H38.575V28.9456Z" fill="#481C04"/>
<path d="M15.4703 26.1343H36.5316C36.7206 26.1343 36.9018 26.0592 37.0354 25.9256C37.1691 25.792 37.2441 25.6107 37.2441 25.4218V18.1793C37.2441 17.9903 37.1691 17.8091 37.0354 17.6755C36.9018 17.5419 36.7206 17.4668 36.5316 17.4668H15.4703C15.2814 17.4668 15.1001 17.5419 14.9665 17.6755C14.8329 17.8091 14.7578 17.9903 14.7578 18.1793V25.4218C14.7578 25.6107 14.8329 25.792 14.9665 25.9256C15.1001 26.0592 15.2814 26.1343 15.4703 26.1343ZM16.1829 18.8918H35.8191V24.7093H16.1829V18.8918Z" fill="#481C04"/>
<path d="M15.4703 16.1349H36.5316C36.6252 16.135 36.7179 16.1166 36.8043 16.0808C36.8908 16.045 36.9694 15.9925 37.0356 15.9264C37.1017 15.8602 37.1542 15.7816 37.19 15.6951C37.2258 15.6087 37.2442 15.516 37.2441 15.4224V7.82287C37.2441 7.6339 37.1691 7.45267 37.0354 7.31904C36.9018 7.18542 36.7206 7.11035 36.5316 7.11035H15.4703C15.2814 7.11035 15.1001 7.18542 14.9665 7.31904C14.8329 7.45267 14.7578 7.6339 14.7578 7.82287V15.424C14.7581 15.6128 14.8334 15.7936 14.967 15.9269C15.1006 16.0602 15.2816 16.135 15.4703 16.1349ZM16.1829 8.53539H35.8191V14.7099H16.1829V8.53539Z" fill="#481C04"/>
<path d="M28.3166 10.7329H23.6852C23.4962 10.7329 23.315 10.808 23.1813 10.9416C23.0477 11.0752 22.9727 11.2565 22.9727 11.4454C22.9727 11.6344 23.0477 11.8156 23.1813 11.9493C23.315 12.0829 23.4962 12.158 23.6852 12.158H28.3166C28.5055 12.158 28.6868 12.0829 28.8204 11.9493C28.954 11.8156 29.0291 11.6344 29.0291 11.4454C29.0291 11.2565 28.954 11.0752 28.8204 10.9416C28.6868 10.808 28.5055 10.7329 28.3166 10.7329Z" fill="#481C04"/>
<path d="M28.3166 21.0879H23.6852C23.4962 21.0879 23.315 21.163 23.1813 21.2966C23.0477 21.4302 22.9727 21.6114 22.9727 21.8004C22.9727 21.9894 23.0477 22.1706 23.1813 22.3042C23.315 22.4379 23.4962 22.5129 23.6852 22.5129H28.3166C28.5055 22.5129 28.6868 22.4379 28.8204 22.3042C28.954 22.1706 29.0291 21.9894 29.0291 21.8004C29.0291 21.6114 28.954 21.4302 28.8204 21.2966C28.6868 21.163 28.5055 21.0879 28.3166 21.0879Z" fill="#481C04"/>
</svg>
