<svg width="37" height="32" viewBox="0 0 37 32" fill="none" xmlns="http://www.w3.org/2000/svg">
<circle cx="12" cy="14" r="12" fill="#FFF2E3"/>
<path d="M32.7361 13.1947C31.9382 13.0202 31.1151 12.9963 30.3086 13.1243V11.3947C30.3086 8.9031 29.3279 6.51351 27.5824 4.75165C25.8369 2.9898 23.4694 2 21.0008 2C18.5323 2 16.1648 2.9898 14.4193 4.75165C12.6737 6.51351 11.6931 8.9031 11.6931 11.3947V13.1231C10.8855 12.9937 10.0612 13.0179 9.26244 13.1944C8.64082 13.3882 8.09222 13.768 7.68935 14.2836C7.28649 14.7993 7.04839 15.4263 7.00662 16.0816C6.96485 16.7369 7.12138 17.3896 7.45547 17.953C7.78955 18.5165 8.2854 18.9642 8.8773 19.2367V26.2368C8.87738 26.3834 8.93509 26.5239 9.03776 26.6275C9.14042 26.7311 9.27963 26.7894 9.42481 26.7895H12.6858V28.4474C12.6858 28.5939 12.7435 28.7345 12.8462 28.8381C12.9489 28.9418 13.0881 29 13.2333 29H15.0023C15.1475 28.9999 15.2867 28.9417 15.3893 28.838C15.492 28.7344 15.5497 28.5939 15.5498 28.4474V26.7895H26.4519V28.4474C26.4519 28.5939 26.5096 28.7345 26.6123 28.8381C26.7149 28.9418 26.8542 29 26.9994 29H28.7683C28.9135 28.9999 29.0527 28.9417 29.1554 28.838C29.2581 28.7344 29.3158 28.5939 29.3159 28.4474V26.7895H32.5769C32.722 26.7894 32.8613 26.7311 32.9639 26.6275C33.0666 26.5239 33.1243 26.3834 33.1244 26.2368V19.2367C33.7161 18.9639 34.2117 18.5159 34.5454 17.9523C34.8792 17.3886 35.0354 16.7359 34.9933 16.0807C34.9512 15.4254 34.7128 14.7985 34.3097 14.2831C33.9066 13.7678 33.3578 13.3882 32.7361 13.1947V13.1947ZM21.0008 3.10526C23.1782 3.10777 25.2657 3.98193 26.8054 5.53596C28.345 7.09 29.2111 9.197 29.2136 11.3947V13.5314C28.6445 13.8532 28.1706 14.3223 27.8407 14.8903C27.5108 15.4583 27.3367 16.1047 27.3364 16.7632V20.9474H14.6653V16.7632C14.6651 16.1047 14.491 15.4581 14.1611 14.8901C13.8312 14.322 13.3573 13.8529 12.7881 13.5311V11.3947C12.7906 9.197 13.6567 7.09 15.1963 5.53596C16.736 3.98193 18.8235 3.10777 21.0008 3.10526V3.10526ZM14.4548 27.8947H13.7808V26.7895H14.4548V27.8947ZM28.2208 27.8947H27.5469V26.7895H28.2208V27.8947ZM32.4132 18.3288C32.3018 18.3641 32.2045 18.4343 32.1354 18.5293C32.0664 18.6242 32.0292 18.739 32.0293 18.8568V25.6842H9.97233V18.8568C9.97238 18.7389 9.93502 18.624 9.86572 18.529C9.79642 18.434 9.69882 18.3638 9.58719 18.3288C9.15544 18.1946 8.77763 17.9243 8.50915 17.5576C8.24066 17.1908 8.09562 16.747 8.09527 16.291C8.09492 15.835 8.23928 15.3908 8.5072 15.0237C8.77513 14.6565 9.15252 14.3856 9.58406 14.2507C10.0443 14.1105 10.339 14.1737 10.9891 14.1579C11.3447 14.1569 11.6965 14.2316 12.0216 14.3771C12.4818 14.5795 12.8735 14.9131 13.1486 15.3369C13.4237 15.7608 13.5702 16.2565 13.5703 16.7632V21.5C13.5704 21.6465 13.6281 21.7871 13.7307 21.8907C13.8334 21.9943 13.9726 22.0525 14.1178 22.0526H27.8839C28.0291 22.0525 28.1683 21.9943 28.2709 21.8907C28.3736 21.7871 28.4313 21.6465 28.4314 21.5V16.7632C28.4316 16.256 28.5784 15.7599 28.854 15.3358C29.1296 14.9117 29.5218 14.5781 29.9826 14.3758C30.307 14.231 30.6579 14.1568 31.0125 14.1579C31.658 14.1746 31.9583 14.1099 32.4145 14.2501C32.8465 14.3843 33.2246 14.6548 33.4931 15.0219C33.7617 15.3889 33.9066 15.8332 33.9066 16.2895C33.9066 16.7458 33.7617 17.19 33.4931 17.5571C33.2246 17.9241 32.8465 18.1946 32.4145 18.3288H32.4132Z" fill="#481C04"/>
</svg>
