<svg width="308" height="90" viewBox="0 0 308 90" fill="none" xmlns="http://www.w3.org/2000/svg">
<path fill-rule="evenodd" clip-rule="evenodd" d="M223.123 10.0286C238.04 10.2933 249.897 12.9054 261.754 15.8386C300.64 25.4708 313.646 40.4158 286.999 55.1018C245.563 77.8764 149.048 92.7818 74.2083 85.9029C57.6339 84.3868 35.1946 83.0506 18.7476 75.6471C3.44814 68.7634 4.08562 60.5799 11.0979 53.0037C18.2377 45.2357 32.0072 38.0864 42.9718 33.4907C90.9103 13.4401 186.915 -4.7832 273.739 4.82398C275.524 5.00909 277.309 4.69075 277.819 4.113C278.329 3.53525 277.436 2.91573 275.779 2.73063C186.404 -7.15663 87.3399 11.458 37.999 32.093C24.357 37.8234 6.50854 47.3893 1.40871 57.2867C-2.03368 64.0512 0.388241 70.9662 13.6478 76.9816C31.1147 84.8678 54.9567 86.4125 72.5511 88.027C149.814 95.1319 249.642 79.7908 292.353 56.2692C321.04 40.4844 307.271 24.4059 265.452 14.0526C252.702 10.8701 239.697 8.11988 223.505 7.8332C221.72 7.80198 220.191 8.26849 220.191 8.87438C220.064 9.48027 221.466 9.99735 223.123 10.0286Z" fill="#C2A17A"/>
</svg>
